<svg xmlns="http://www.w3.org/2000/svg" width="240" height="324" fill="none"><path fill="#fff" fill-rule="evenodd" d="M114.339 135.723c5.216-3.973 18.308-5.759 23.875-1.934 5.497 3.841 6.096 10.053 8.658 15.768 2.417-1.14 6.409.493 7.11 2.736.869 1.059.908 4.032 1.507 5.454 26.08 4.153 30.039 24.493 33.178 47.585 4.153 23.432 13.58 46.813 9.487 70.925.533.772.954 1.522 1.343 2.413.931 1.586-.269 3.83-2.148 3.743-2.431-.213-4.839-.505-7.283-.596-6.773-.235-13.552-.207-20.328-.121l-.924.012c-34.148.425-68.294 1.263-102.443 1.485-1.239.002-1.845-1.109-1.68-2.206.333-2.207.642-4.416.965-6.625-8.077 2.135-16.664 2.672-24.718.225-.564-.574 1.313-.263 1.61-.35-7.412-5.067-5.199-15.742-4.542-23.431 4.083-26.345 5.522-55.494 21.297-77.974 6.825-9.175 16.83-16.438 28.327-18.073l.32-.043c3.361-.449 7.108-.593 10.047-2.423 3.306-2.64 4.714-7.518 8.192-7.564 1.148-.015 2.711 1.439 4.392 2.426.125-2.171 1.295-4.003 1.553-5.686l.021-.144c.269-1.962-.1-3.728 2.184-5.602Zm56.047 70.305c-7.329-5.094-26.261-2.534-26.694-2.249-.955.628-1.366.683-1.882 1.499-.509.067-1.019.137-1.527.21-1.021.333-.265 1.589.914 1.141-.709 3.059 1.378 5.235 2.209 8.259.269.982.009 2.748 0 3.751.08 1.28 1.494 2.791 1.258 4.074-.837 4.563-5.383 9.014-3.467 13.439 1.27 2.499 5.089 3.774 7.628 4.623 5.26 2.02 14.426-.076 17.482-4.623 1.631-2.425 3.519-8.543 4.491-10.441l.216-3.01c.531-7.484 1.004-15.539-.628-16.673Z" clip-rule="evenodd"/><path fill="#000" fill-rule="evenodd" d="M104.912 144.288c.506-.448 1.255.115.933.721-.722 1.361-1.464 2.65-2.433 3.853-.588.73-1.218 1.42-1.856 2.102 1.638 1.417 3.042 3.177 4.369 4.827 1.696 2.109 3.3 4.308 5.204 6.238 1.878 1.904 3.954 3.235 6.465 4.122l.507.176c2.522.886 5.218 2.082 6.64 4.471.28.471-.284 1.053-.759.759-2.47-1.53-5.373-1.838-8.062-2.849-2.598-.976-4.862-2.479-6.863-4.398-1.997-1.915-3.674-4.094-5.423-6.227-1.73-2.109-3.593-3.911-5.639-5.695-3.157 2.125-6.761 3.05-10.426 3.958l-.4.099c-3.67.909-7.32 1.964-10.762 3.547-3.035 1.395-6.02 3.061-8.492 5.331-2.625 2.41-4.667 5.487-6.537 8.496-4.181 6.733-7.121 14.109-9.71 21.575a222.842 222.842 0 0 0-6.761 23.701 167.288 167.288 0 0 0-2.293 12.318 184.45 184.45 0 0 0-.792 5.987c-.248 2.136-.305 4.333-.96 6.386-.28.88-.943 1.246-1.607 1.214l-.135 1.687c-.178 2.248-.345 4.497-.401 6.759-.093 3.762-.051 7.513.22 11.266l.038.512c.212 2.74.687 5.818 2.746 7.824 2.133 2.077 5.412 2.731 8.287 2.768 6.694.087 13.138-3.077 19.062-5.853a206.052 206.052 0 0 0 17.828-9.474 270.24 270.24 0 0 0 8.748-5.428 234.07 234.07 0 0 0 4.21-2.79c.798-.542 1.554-1.135 2.366-1.616-.398-.371-.575-.953-.242-1.462-2.348-2.04-3.326-5.678-3.44-8.623-.092-2.376.257-4.746.533-7.1.14-1.188.312-2.373.49-3.554.07-.467.125-.967.207-1.46a193.69 193.69 0 0 1-19.55 9.348 155.155 155.155 0 0 1-10.425 3.85l-.714.235c-3.337 1.093-6.753 2.125-10.203 2.749-.184.034-.334-.239-.137-.325 3.361-1.484 6.84-2.736 10.252-4.103l.56-.228a1.236 1.236 0 0 1-.2-.029c-2.002-.483-3.987-1.228-5.95-1.855-1.821-.582-3.868-.947-5.57-1.825-.132-.068-.058-.25.07-.259 1.913-.133 3.99.425 5.867.754l.705.123c1.18.208 2.387.432 3.562.724.043-.393.263-.789.576-1.021 3.443-2.551 3.093-7.702 3.461-11.501l.273-2.821c.48-4.936.989-9.872 1.76-14.771.042-.261.447-.186.448.061.04 6.073-.418 12.118-.648 18.181l-.035.995c-.127 3.742-.227 7.627-2.583 10.506.33-.193.775-.193 1.042.125.328.39.517.828.511 1.258a337.892 337.892 0 0 0 6.357-2.743c6.78-3.005 13.418-6.368 19.88-10.006.696-.392 1.357-.084 1.701.432l.05-.007.025-.002.049-.002h.006c.91-.5 2.149-.144 2.929.585.023.022.043.046.064.069a10.46 10.46 0 0 0 2.748-1.802c1.714-1.554 3.166-3.475 4.431-5.402 2.331-3.549 4.31-7.495 7.458-10.416 2.558-2.373 5.729-3.851 9.056-4.778a.331.331 0 0 1 .09-.27c.171-.175.293-.236.514-.129a.07.07 0 0 1 .035.033l.325-.555c.177-.301.359-.605.422-.684.378-.476.767-.948 1.161-1.41.669-.783 1.432-1.555 2.315-2.098 1.933-1.188 3.965-.516 5.952.134 1.201.392 2.398.797 3.597 1.196l.123.04c.894.287 1.94.539 2.34 1.486.158.375.183.764.109 1.141 8.49-2.159 17.919-1.167 26.203 1.368.318.098.636.359.703.703.949 4.87 1.372 9.864.942 14.816-.37 4.276-1.317 8.465-3.102 12.379l-.101.221c-1.677 3.627-4.335 8.099-8.394 9.236-2.451.686-5.162.282-7.661.156-2.43-.123-4.913-.14-7.319-.522-2.143-.341-4.021-1.302-5.345-3.045-1.143-1.504-1.745-3.322-2.238-5.13-.225.072-.449.149-.67.235-.931.364-1.72.951-2.433 1.642-1.506 1.459-2.675 3.231-4.25 4.623-1.427 1.261-3.052 2.241-4.796 2.995-3.613 1.562-7.489 2.186-11.31 3.013l-.267.058c-2.877.632-5.814 1.407-8.353 2.906-.05.441-.251.856-.573 1.128.448.421.638 1.087.244 1.712-1.099 1.746-2.993 2.739-4.693 3.855l-.11.073a205.462 205.462 0 0 1-15.627 9.429c-5.757 3.147-11.638 6.115-17.626 8.807.36 1.769.229 3.592.499 5.373l.041.254c.115.661-.04 1.213-.495 1.645l-.048.044v-.006l-.042.04-.015.012.005-.004a1.536 1.536 0 0 1-.162.131l-.07.045c-.438.266-1.002.263-1.45.028l-.052-.028-.086-.049c-.593-.342-1.002-1.187-.756-1.858.604-1.65.833-3.412 1.391-5.073l-.443.198-.584.255c-6.312 2.73-13.323 5.03-20.201 3.168-3.039-.822-5.88-2.563-7.4-5.399-1.496-2.791-1.707-6.032-1.787-9.137a73.592 73.592 0 0 1 .613-11.522c.339-2.55.749-5.148 1.381-7.672a1.904 1.904 0 0 1-.627-1.209c-.299-2.411.224-4.917.543-7.314.313-2.342.658-4.679 1.049-7.008a241.208 241.208 0 0 1 2.77-14.048c1.898-8.275 4.403-16.402 7.42-24.336l.264-.691c2.788-7.251 6.016-14.347 10.51-20.717 2.15-3.048 4.424-5.811 7.462-8.008 2.846-2.057 6.056-3.539 9.37-4.671 3.316-1.133 6.725-1.893 10.194-2.365 3.524-.48 7.243-.774 10.53-2.22-.416-.745-.06-1.752.64-2.215 2.355-1.556 4.532-3.581 6.643-5.452Zm75.381 67.679c.099-.15.333-.055.29.122-1.145 4.694-2.22 9.398-2.922 14.181-1.268 8.634-1.035 17.38-.931 26.078l.005.449c.053 4.685.127 9.37.282 14.053.078 2.367.233 4.757.149 7.125-.046 1.285-.388 2.5-.509 3.769-.107 1.11-.012 2.236.041 3.348.035.739-1.055.707-1.129 0l-.095-.915c-.123-1.158-.275-2.309-.654-3.417-.457-1.333-.675-2.642-.834-4.042-.242-2.145-.35-4.311-.443-6.47l-.064-1.494c-.391-9.026-.377-18.094.255-27.11l.046-.644c.627-8.522 1.713-17.731 6.513-25.033Zm-24.413-53.714c-.299-.123-.194-.575.137-.496l.603.143c4.414 1.058 8.748 2.204 12.869 4.172 4.122 1.97 7.613 4.91 10.387 8.525 5.391 7.028 7.632 15.569 9.4 24.101 1.966 9.482 3.756 18.998 5.738 28.476l.369 1.766c1.834 8.828 3.566 17.661 4.843 26.593l.091.648c1.287 9.186 2.062 18.689.657 27.899-.278 1.822-3.308 1.368-3.19-.432.342-5.204.587-10.381.351-15.596a165.306 165.306 0 0 0-1.456-15.582c-.613-4.352-1.528-8.65-2.337-12.967l-.127-.682c-.678-3.672-1.377-7.34-2.074-11.008l-1.042-5.493c-1.561-8.224-3.153-16.456-4.952-24.628l-.107-.481c-1.76-7.863-4.356-16.099-9.636-22.343-5.359-6.336-13.03-9.527-20.524-12.615Zm-19.472 83.399c.129-.288.58-.256.719 0 .543 1.002.603 2.281.706 3.413l.011.116a96.13 96.13 0 0 1 .316 4.152c.135 2.629.199 5.254.191 7.887a160.347 160.347 0 0 1-.208 8.086l-.04.721c-.133 2.341-.355 4.952-1.467 6.999-.404.744-1.503.525-1.737-.227-.767-2.464-.374-5.385-.177-7.908l.153-1.969c.151-1.969.295-3.938.41-5.91.156-2.697.286-5.396.41-8.094.041-.877.084-1.753.131-2.63l.071-1.314c.06-1.1.055-2.306.511-3.322Zm-86.228 3.491.34-.328c1.042-1.02 2.359-2.592 3.9-2.494.614.039 1.005.549.878 1.154-.272 1.292-1.59 1.963-2.54 2.752-1.039.864-2.018 1.788-2.996 2.721a58.173 58.173 0 0 0-2.516 2.555l-.304.33c-.292.318-2.37 2.199-2.146 2.687l.013.022c.062.093-.042.221-.146.189-.897-.284-.841-1.053-.502-1.833.652-1.498 1.794-2.884 2.79-4.163a35.083 35.083 0 0 1 3.229-3.592Zm89.481-37.568c-.694-1.641-3.251-1.607-4.702-1.508-3.655.247-7.61 1.172-10.862 2.881-3.371 1.771-5.643 4.61-7.675 7.749l-.095.148c-1.98 3.08-3.888 6.726-6.989 8.843-1.58 1.079-3.424 2.065-5.341 2.491a.977.977 0 0 1-.624.481l-.13.03c-.546.121-1.394.254-2.127.174.005.359.001.715.01 1.054.026.974.037 1.951.037 2.925.001 2.04-.109 4.085-.024 6.125.075 1.805.33 3.691 1.196 5.304.636 1.184 1.474 1.967 2.486 2.715 2.49-1.518 5.306-2.444 8.164-3.14 3.456-.841 6.994-1.402 10.371-2.543 1.626-.55 3.189-1.268 4.605-2.245 1.502-1.036 2.65-2.439 3.831-3.811l.185-.213c1.205-1.383 2.52-2.706 4.223-3.456 1.467-.645 3.401-.76 4.683-1.76.671-.523.727-1.281.797-2.058-.821.117-1.69-.071-2.509-.167l-.424-.05c-.774-.092-1.531-.193-2.293-.39-.141-.037-.141-.25 0-.287.901-.232 1.793-.331 2.717-.44l.217-.027c.835-.109 1.713-.275 2.533-.091a6.928 6.928 0 0 1 .657-1.629c.418-.752 1.209-1.604 1.316-2.482a1.435 1.435 0 0 0-.153-.804l-.042-.079a.666.666 0 0 0-.204-.245c-.01.012-.031.025-.077.039-.63.199-1.18-.11-1.472-.586-1.24.154-2.593.102-3.755.154l-1.175.057c-1.256.057-2.569.082-3.749-.171-.165-.036-.215-.31-.05-.381 1.451-.62 3.211-.818 4.764-1.057.868-.133 1.741-.235 2.611-.352.58-.078 1.195-.207 1.795-.238 1.505-1.874.694-4.831-1.401-5.638-.762.336-1.448.141-2.282.069a27.852 27.852 0 0 0-2.501-.116c-1.674.007-3.448.448-5.106.258-.269-.031-.52-.39-.252-.609 1.269-1.036 3.088-1.373 4.698-1.594l.334-.045c.54-.071 1.197-.174 1.878-.235.154-.301.43-.528.845-.585.124-.017.248-.026.372-.037l-.002-.012c1.012-.049.968-1.76.691-2.416Zm-69.31 32.004a.913.913 0 0 1-.059.079l-.032.037.166-.067-.076-.049Zm86.976-35.671c-4.261-.458-8.528-.361-12.802-.238-.342 1.118-1.532 2.071-2.685 2.107.903 1.375.996 3.236.363 4.694 1.344.535 2.502 1.497 3.206 2.867.975 1.898.847 4.011-.117 5.765.823.745 1.308 1.955 1.26 3.095-.055 1.271-.812 2.357-1.442 3.41-.68 1.138-.702 2.14-.911 3.415-.306 1.866-1.564 2.997-3.182 3.704l.086.339c.417 1.625.936 3.339 2.129 4.527 1.534 1.529 3.914 1.515 5.941 1.611l.098.005c1.856.093 3.711.202 5.567.307l1.391.078c2.137.117 4.188.131 5.932-1.281 2.848-2.307 4.799-6.123 6.035-9.502 2.593-7.092 2.624-14.875 1.434-22.262-3.992-1.287-8.134-2.193-12.303-2.641Zm-35.437 11.767.031.002c.877.1 1.48.811 1.695 1.654.311 1.225.159 2.333.909 3.439.772 1.138 1.246 2.049 1.358 3.454.046.578.025 1.155.154 1.721l.093.396c.099.423.18.83.131 1.284-.045.414-.247.737-.662.87-1.352.433-2.397-.565-2.746-1.826-.302-1.089.101-2.387-.325-3.41-.236-.567-.671-1.041-.917-1.612a5.265 5.265 0 0 1-.405-1.772c-.074-1.163.954-2.561.38-3.615-.122-.225.016-.592.304-.585Zm-17.969-12.005c.916-.186 1.955-.613 2.858-.258.465.183.694.749.302 1.143-.681.683-1.671.721-2.589.882l-.081.014c-1.085.201-2.171.392-3.26.572-2.047.339-4.1.639-6.159.894a157.72 157.72 0 0 1-6.36.671l-.822.067c-1.795.144-3.662.252-5.422-.023-.256-.04-.215-.413 0-.478 1.929-.584 4.044-.74 6.038-.988 2.12-.263 4.236-.541 6.347-.87a220.51 220.51 0 0 0 6.309-1.074c.948-.176 1.894-.36 2.839-.552Zm33.053-1.875c-.804-.285-1.688-.706-2.559-.565-1.502.243-2.839 1.707-4.028 2.671l.597-.116c3.055-.587 7.1-1.22 9.664.723.007-.011.012-.022.02-.033.207-.315.446-.56.708-.829l.073-.073.141-.15-.323-.112c-.692-.245-1.511-.561-1.641-.607l-.009-.003c-.882-.299-1.765-.595-2.643-.906Zm-25.099-64.055c-.125-1.617 2.391-1.604 2.516 0 .272 3.502-.516 6.971-2.212 10.042-.012.022-.026.042-.039.063a49.124 49.124 0 0 0 3.23 1.555 47.404 47.404 0 0 0 4.286 1.625c1.316.424 2.937.591 4.043 1.472 2.332 1.859 1.456 5.715 1.007 8.215l-.07.394c-.223 1.286-.385 2.606.157 3.841.579 1.318 1.75 2.296 2.794 3.24l.211.191c.925.843 1.982 1.868 2.661 3.011.619-1.281 1.464-2.328 2.357-3.507.637-.841.183-1.119-.274-1.94-.441-.791-.656-1.634-.518-2.537.254-1.666 1.585-2.869 2.91-3.774 1.565-1.067 3.312-1.858 4.929-2.851 3.324-2.041 6.562-4.374 9.478-6.965.081-.071.22.023.156.12-2.304 3.506-5.006 6.535-8.326 9.107-1.346 1.042-2.76 1.907-4.184 2.816l-.409.263c-.572.37-1.285.866-1.543 1.496-.26.634.294 1.113.593 1.639.948 1.668.49 3.225-.633 4.64l-.053.065c-1.117 1.377-1.963 2.657-2.368 4.416-.869 3.779.342 7.714 1.61 11.261l.05.14c.686 1.912 1.415 3.81 2.011 5.752l.164.537c.54 1.788.983 3.55.377 5.388-.206.625-1.058.773-1.412.184-1.249-2.074-1.56-4.57-2.342-6.85-.763-2.223-1.639-4.405-2.375-6.637-.949-2.873-1.584-5.966-1.239-8.98-.01-.018-.022-.034-.03-.053l-.241-.528c-.659-1.431-1.295-2.68-2.492-3.821-1.249-1.19-2.605-2.243-3.588-3.683-2.135-3.128-.814-6.608-.557-10.028l.03-.42c.047-.71.072-1.675-.391-2.167-.522-.553-1.745-.694-2.437-.939-1.789-.633-3.551-1.371-5.23-2.257-1.598-.843-3.146-1.775-4.587-2.866l-.731-.55c-1.153-.87-2.348-1.82-3.12-3.005-.089-.136.062-.356.224-.291 1.289.524 2.467 1.357 3.674 2.081.019-.044.04-.089.065-.133 1.493-2.703 2.107-5.698 1.868-8.772Zm41.194 18.518c.514-1.41 2.856-1.301 2.762.374-.071 1.287-.617 2.448-1.117 3.616l-.053.125a23.332 23.332 0 0 1-1.823 3.476c-1.361 2.132-2.956 4.111-4.659 5.979-1.544 1.693-3.57 2.729-5.905 2.557-.984-.073-1.978-.323-2.84-.815-1.024-.584-2.136-2.338-3.442-1.913-.127.041-.245-.144-.135-.232 1.508-1.215 3.22.669 4.664 1.123 2.176.684 4.409-.072 5.809-1.832 1.462-1.837 2.808-3.894 4.037-5.895a28.583 28.583 0 0 0 1.685-3.156c.497-1.097.609-2.289 1.017-3.407Zm-3.507-8.674c-.064-.195.178-.38.349-.269.991.645 1.85 1.498 2.764 2.246 1.014.829 2.036 1.642 3.073 2.442 1.513 1.166-.241 3.313-1.573 2.039-1.822-1.743-3.817-4.022-4.613-6.458Zm-5.441-6.823c.402-1.553 2.783-.912 2.436.623l-.011.046c-.657 2.536.279 5.117 2.277 6.761l.074.06c1.264 1.012-.527 2.781-1.779 1.779-2.733-2.188-3.869-5.905-2.997-9.269Z" clip-rule="evenodd"/><path fill="#fff" fill-rule="evenodd" d="M167.024 97.896c-.084-4.735-.177-9.564-.88-14.253-.688-4.584-2.58-8.727-5.832-12.055-6.907-7.07-16.919-8.798-26.239-10.38l-15.933-2.706c-4.861-.826-10.047-2.145-14.959-.974-2.42.576-4.475 1.916-6.353 3.502-1.81 1.528-3.758 3.169-4.984 5.224-1.23 2.06-1.652 4.466-2.051 6.794-.451 2.626-.801 5.271-1.05 7.923a99.294 99.294 0 0 0-.205 15.991 110.625 110.625 0 0 0 1.41 11.524c.067.373.118.786.186 1.202-.503 1.43-.789 2.911-.766 4.386.068 4.344 3.733 7.078 7.428 8.547 2.142.851 4.382 1.429 6.487 2.38 2.214 1.001 3.721 2.622 5.235 4.472 2.887 3.529 6.146 6.7 9.866 9.345 7.889 5.61 17.88 8.263 27.451 6.249 2.297-.483 4.613-1.233 6.678-2.364 2.179-1.193 3.818-2.923 5.194-4.968 2.555-3.796 4.388-8.07 5.774-12.42 1.414-4.437 2.418-8.882 2.965-13.509.546-4.612.661-9.27.578-13.91Z" clip-rule="evenodd"/><path fill="#000" fill-rule="evenodd" d="M116.179 42.008c6.593-.907 15.694 2.042 18.978 7.988 15.677-3.697 35.45-3.819 48.372 8.49 13.483 14.6-3.453 33.851-14.682 38.192.817 3.974-.457 29.439-9.477 40.798-7.159 9.624-23.83 14.065-31.544 2.57l-.06-.095c-.826-1.327-.114-1.285.734-.297 7.554 6.645 17.824 6.759 25.738-.255 14.833-12.818 13.304-44.248 6.246-62.43-20.098-2.209-41.617 3.885-55.498 19.02l.939 5.653c.159.963.341 1.925.48 2.892.089.619.098 1.235-.33 1.736-1.417 1.655-3.803-.832-5.767-1.821a8.32 8.32 0 0 0-1.73-.073c-9.435 1.216-7.576 19.525 2.794 16.316.871-.543 1.619-.377 1.957.411 2.472 2.265 4.102 6.304 8.208 10.194 1.449 1.46 2.767 2.681 4.397 3.851.957.969 3.846 1.956 2.93 3.613-1.731 3.771-11.942-8.074-13.747-11.35-5.657 2.235-11.925 1.476-17.787.93-30.923-1.609-26.795-34.218-1.448-54.806 4.772-3.514 10.036-6.38 15.508-8.586.747-.301.421-1.528-.337-1.223a75.654 75.654 0 0 0-10.515 5.209l-.005-1.203c-.005-2.025.027-4.133.378-5.983.176-1.282.472-2.652.927-3.682.562-3.158 9.375-13.998 24.341-16.059ZM98.165 108.58c.477-.454 1.369.087 1.794.074 1.087.148 2.12.608 2.925 1.175.532.298.904.577 1.216.835l.008-.003c-.002 0-.005.003-.008.003l.03.02c.453.323 2.113 2.138 1.064 1.65a7.132 7.132 0 0 0-.239-.295.153.153 0 0 1-.035.038l.059.088c.892 1.341-.647-.072-.884-.448a.193.193 0 0 1-.036.022l.308.376.105.131.065.063c1.031 1.014 1.063 1.926-.135.427a.49.49 0 0 1 .091.212l.071.091c.94 1.211.175.781-.292.263l-.039-.044.008.012c.434.67-.428.2-.58-.158l-.007-.017c-.166-.135-.268-.287-.303-.326l-.006-.006c-.809-.829-1.98-1.53-2.976-1.848a4.882 4.882 0 0 0-.437-.065 13.233 13.233 0 0 0-1.815-.275c-.075-.009-.151-.064-.208-.135-.924-.031-.639-.41-.255-.48l.007-.001-.077-.007c-.593-.058-.998-.271-.398-.401l.076-.016c-.01-.014-.018-.029-.026-.043-.514-.057-.178-.556.107-.436-.12-.392.428-.196.497-.254.052-.058.117-.109.154-.112.165-.117.085-.106.171-.11Zm3.144-6.354-.12.07a1.031 1.031 0 0 1-.298.117c.142.06.282.126.421.195-.002-.085-.004-.17-.004-.255l.001-.127Z" clip-rule="evenodd"/><path fill="#000" fill-rule="evenodd" d="M143.152 128.274a8.601 8.601 0 0 1-3.614-2.781 1.671 1.671 0 0 1-.338-1.297c.076-.467.352-.889.728-1.173.377-.284.849-.424 1.305-.353.397.062.791.279 1.104.73l.065.09a5.695 5.695 0 0 0 2.086 1.751 4.7 4.7 0 0 0 2.582.454c1.738-.196 2.935-1.136 4.208-2.413.158-.161.316-.327.474-.496a.746.746 0 0 1 .394-.303.864.864 0 0 1 .97.332c.097.143.153.32.135.524-.117 1.323-.808 2.503-1.79 3.43-1.091 1.03-2.537 1.742-3.898 1.992-1.499.275-3.027.078-4.411-.487Zm5.119-20.408c1.595.971 4.026 3.233 2.31 5.638-2.021 2.12-4.929-.311-6.362-1.411-1.329-.852-2.823 1.34-1.59 2.335 10.358 7.671 14.561-6.308 6.449-7.702-.894-.154-1.225.84-.807 1.14Zm-18.56-8.923c.176-2.189 3.508-2.686 3.84-.52.296 1.94-.053 3.723-.927 5.47-.834 1.668-2.932.89-3.091-.63-.213-2.037.068-2.958.178-4.32Zm25.365-.969c.465-.609 1.136-1.024 1.939-.79 2.511.735 1.771 4.301.889 6.037-.479.942-2.028 1.181-2.728.351-1.14-1.353-1.687-4.056-.236-5.39.039-.068.083-.138.136-.208Zm-22.487-8.608.397-.07c1.227-.212 2.752-.416 3.62.57.461.524.619 1.497 0 1.998-1.088.88-2.292.54-3.596.614a14.3 14.3 0 0 0-3.143.536c-2.272.65-4.123 1.835-6.063 3.137-.254.17-.514-.155-.393-.393 1.12-2.195 3.29-3.997 5.464-5.096 1.161-.587 2.43-1.073 3.714-1.296Zm20.198-.983.304.062c3.304.69 7.596 2.07 9.16 5.317.06.459-.003.557-.054.621l-.017.022c-.043.055-.076.13-.275.193a8.562 8.562 0 0 1-.168-.042c-.717-.188-1.284-.447-1.833-.716l-.596-.293c-.691-.34-1.388-.666-2.127-.907a25.038 25.038 0 0 0-4.844-1.07 1.988 1.988 0 0 1-.972-.37 1.464 1.464 0 0 1-.544-.827c-.116-.467-.082-.82.168-1.242.188-.316.458-.535.767-.661a1.798 1.798 0 0 1 1.031-.087Z" clip-rule="evenodd"/><path fill="#000" fill-rule="evenodd" d="M169.071 112.228c-.701-.94-1.959-2.175-3.232-2.108-.163.008-.224.185-.126.304.416.509.985.871 1.402 1.39.494.615.85 1.356 1.082 2.106.337 1.089.43 2.321.13 3.429-.529 1.952-2.202 3.383-4.027 4.113-1.806.723-3.98.97-5.688-.089-2.521-1.565-4.66-3.82-7.829-3.864-.742-.011-1.264.329-1.575.814-.313-.468-.829-.798-1.552-.807-3.553-.04-6.204 2.407-9.186 3.932-2.016 1.031-4.623.711-6.702.03-1.962-.642-4.091-1.932-4.83-3.969-.409-1.125-.317-2.438.102-3.547a6.295 6.295 0 0 1 1.228-2.006c.546-.594 1.264-.968 1.824-1.532.114-.115.024-.294-.127-.304-2.376-.161-4.521 2.677-4.969 4.736-.442 2.027.217 4.05 1.55 5.597 2.711 3.146 7.731 4.183 11.638 3.259 3.163-.748 6.166-2.471 9.472-2.224.725.054 1.245-.248 1.559-.706.314.472.838.78 1.568.709 3.081-.298 5.831 1.885 8.822 2.418 2.381.424 4.953-.148 6.993-1.432 2.133-1.341 3.634-3.493 3.733-6.058.057-1.476-.376-3.003-1.26-4.191" clip-rule="evenodd"/></svg>